<?xml version="1.0" encoding="UTF-8"?>
<svg xmlns="http://www.w3.org/2000/svg" xmlns:xlink="http://www.w3.org/1999/xlink" xmlns:svgjs="http://svgjs.com/svgjs" version="1.1" width="512" height="512" x="0" y="0" viewBox="0 0 512 512" style="enable-background:new 0 0 512 512" xml:space="preserve" class="">
  <g>
    <path d="M418.554 504.5H93.446c-35.429 0-64.151-28.721-64.151-64.151v-185.59c0-11.7 9.484-21.184 21.184-21.184H461.52c11.7 0 21.184 9.484 21.184 21.184v185.59c0 35.43-28.721 64.151-64.15 64.151z" style="stroke-width:15;stroke-linecap:round;stroke-linejoin:round;stroke-miterlimit:10;" fill="none" stroke="#ffffff" stroke-width="15" stroke-linecap="round" stroke-linejoin="round" stroke-miterlimit="10" data-original="#000000" class=""/>
    <path d="M227.711 307.497h-9.983c-10.924 0-19.78-8.856-19.78-19.78v0c0-10.924 8.856-19.78 19.78-19.78h76.544c10.924 0 19.78 8.856 19.78 19.78v0c0 10.924-8.856 19.78-19.78 19.78h-31.46M457.301 233.575H327.646l-6.936-58.094c-.939-7.866 5.204-14.786 13.126-14.786H451.11c7.922 0 14.065 6.92 13.126 14.786l-6.935 58.094zM392.473 160.695c0-33.075 34.651-72.166 59.274-54.203 20.359 14.851-21.454 54.203-59.274 54.203zM392.473 160.695c0-33.075-34.651-72.166-59.274-54.203-20.358 14.851 21.455 54.203 59.274 54.203z" style="stroke-width:15;stroke-linecap:round;stroke-linejoin:round;stroke-miterlimit:10;" fill="none" stroke="#ffffff" stroke-width="15" stroke-linecap="round" stroke-linejoin="round" stroke-miterlimit="10" data-original="#000000" class=""/>
    <path d="M392.473 119.941c0-37.514 26.674-81.851 45.63-61.477 15.672 16.844-16.516 61.477-45.63 61.477zM392.473 119.941c0-37.514-26.674-81.851-45.63-61.477-15.671 16.844 16.517 61.477 45.63 61.477zM392.473 160.695V96.567" style="stroke-width:15;stroke-linecap:round;stroke-linejoin:round;stroke-miterlimit:10;" fill="none" stroke="#ffffff" stroke-width="15" stroke-linecap="round" stroke-linejoin="round" stroke-miterlimit="10" data-original="#000000" class=""/>
    <path d="M392.473 96.567S354.72 7.5 392.473 7.5s0 89.067 0 89.067zM166.867 160.695H50.48v-20.758a8.607 8.607 0 0 1 8.607-8.607h99.173a8.607 8.607 0 0 1 8.607 8.607v20.758zM50.48 179.033v-18.338h116.387v72.88H50.48v-18.532" style="stroke-width:15;stroke-linecap:round;stroke-linejoin:round;stroke-miterlimit:10;" fill="none" stroke="#ffffff" stroke-width="15" stroke-linecap="round" stroke-linejoin="round" stroke-miterlimit="10" data-original="#000000" class=""/>
    <path d="M87.328 131.33H61.239V70.997c0-7.204 5.84-13.044 13.044-13.044h0c7.204 0 13.044 5.84 13.044 13.044v60.333zM113.416 131.33H87.328V95.334c0-2.612.624-5.186 1.819-7.509l7.279-14.144c1.652-3.21 6.241-3.21 7.893 0l7.279 14.144a16.415 16.415 0 0 1 1.819 7.509v35.996z" style="stroke-width:15;stroke-linecap:round;stroke-linejoin:round;stroke-miterlimit:10;" fill="none" stroke="#ffffff" stroke-width="15" stroke-linecap="round" stroke-linejoin="round" stroke-miterlimit="10" data-original="#000000" class=""/>
    <path d="M139.505 131.33h-26.089V95.334c0-2.612.624-5.186 1.819-7.509l7.279-14.144c1.652-3.21 6.241-3.21 7.893 0l7.279 14.144a16.415 16.415 0 0 1 1.819 7.509v35.996zM61.239 70.997H52.89c-7.338 0-13.286 5.948-13.286 13.286v27.544M166.867 233.575V99.169c0-7.535 6.108-13.643 13.643-13.643h40.36c5.197 0 9.943 2.953 12.239 7.615l4.105 8.335a10.228 10.228 0 0 0 9.176 5.709h85.925M258.682 53.329h97.169M185.451 85.526V66.958c0-7.527 6.102-13.629 13.629-13.629h22.987" style="stroke-width:15;stroke-linecap:round;stroke-linejoin:round;stroke-miterlimit:10;" fill="none" stroke="#ffffff" stroke-width="15" stroke-linecap="round" stroke-linejoin="round" stroke-miterlimit="10" data-original="#000000" class=""/>
  </g>
</svg>
